<svg width="17" height="21" viewBox="0 0 17 21" fill="none" xmlns="http://www.w3.org/2000/svg">
<path d="M10.8333 8.66667C9.97138 8.66667 9.14473 8.32426 8.53524 7.71476C7.92574 7.10527 7.58333 6.27862 7.58333 5.41667V1.08333H3.25C2.67536 1.08333 2.12426 1.31161 1.71794 1.71794C1.31161 2.12426 1.08333 2.67536 1.08333 3.25V17.3333C1.08333 17.908 1.31161 18.4591 1.71794 18.8654C2.12426 19.2717 2.67536 19.5 3.25 19.5H13C13.5746 19.5 14.1257 19.2717 14.5321 18.8654C14.9384 18.4591 15.1667 17.908 15.1667 17.3333V8.66667H10.8333ZM8.66667 5.41667C8.66667 5.9913 8.89494 6.5424 9.30127 6.94873C9.7076 7.35506 10.2587 7.58333 10.8333 7.58333H14.7182L8.66667 1.53183V5.41667ZM3.25 0H8.66667L16.25 7.58333V17.3333C16.25 18.1953 15.9076 19.0219 15.2981 19.6314C14.6886 20.2409 13.862 20.5833 13 20.5833H3.25C2.38805 20.5833 1.5614 20.2409 0.951903 19.6314C0.34241 19.0219 0 18.1953 0 17.3333V3.25C0 2.38805 0.34241 1.5614 0.951903 0.951903C1.5614 0.34241 2.38805 0 3.25 0V0Z" fill="#7C7C7C"/>
<path d="M4 11.5555L8.5 16L13 11.5555L12.4376 11L8.5 14.8891L4.5624 11L4 11.5555Z" fill="#7C7C7C"/>
</svg>
