<svg width="16" height="16" viewBox="0 0 16 16" fill="none" xmlns="http://www.w3.org/2000/svg">
<path d="M15.9854 7.748C15.9528 8.58516 15.7763 9.36252 15.456 10.0801C15.1357 10.792 14.6913 11.3415 14.1226 11.7288C13.5605 12.1103 12.9068 12.3011 12.1617 12.3011C11.5277 12.3011 11.0113 12.1559 10.6126 11.8655C10.2139 11.575 9.94917 11.1678 9.81844 10.6439C9.11252 11.7487 8.13861 12.3011 6.89671 12.3011C5.98163 12.3011 5.29858 11.9566 4.84758 11.2675C4.39657 10.5784 4.2299 9.65012 4.34755 8.48265C4.44559 7.55437 4.68744 6.7286 5.07308 6.00534C5.46526 5.27638 5.97182 4.70973 6.59277 4.30539C7.22026 3.89536 7.89023 3.69034 8.60269 3.69034C9.10598 3.69034 9.54718 3.75298 9.92629 3.87827C10.3054 3.99786 10.7466 4.24275 11.2499 4.61292L10.7499 9.48211C10.6845 10.1427 10.7793 10.6553 11.0342 11.0198C11.2956 11.3842 11.7107 11.5665 12.2794 11.5665C13.0833 11.5665 13.7337 11.2248 14.2304 10.5414C14.7337 9.85229 15.0148 8.92116 15.0736 7.748C15.1978 5.44154 14.6945 3.70742 13.5637 2.54565C12.433 1.37818 10.7204 0.794447 8.42621 0.794447C7.04705 0.794447 5.80188 1.09628 4.69071 1.69995C3.58607 2.29792 2.71347 3.14647 2.07292 4.2456C1.43236 5.34472 1.07286 6.61185 0.994425 8.04698C0.915989 9.48211 1.13169 10.7464 1.64152 11.8398C2.15789 12.9276 2.93244 13.7647 3.96518 14.3513C5.00445 14.9379 6.23981 15.2312 7.67126 15.2312C8.2726 15.2312 8.86414 15.1685 9.44587 15.0432C10.0276 14.918 10.5146 14.7557 10.9067 14.5563L11.2107 15.2397C10.8381 15.4561 10.3185 15.6355 9.65176 15.7779C8.98506 15.926 8.31182 16 7.63204 16C5.99797 16 4.59266 15.6782 3.41613 15.0347C2.23959 14.3969 1.35719 13.4743 0.768922 12.267C0.187191 11.0653 -0.064457 9.65866 0.0139786 8.04698C0.0924143 6.46378 0.491129 5.06282 1.21012 3.8441C1.93565 2.61968 2.9259 1.67432 4.18087 1.00801C5.43585 0.336003 6.86403 0 8.46542 0C10.1322 0 11.544 0.304681 12.701 0.914042C13.8579 1.51771 14.7141 2.40327 15.2697 3.57074C15.8253 4.73821 16.0639 6.13063 15.9854 7.748ZM5.38682 9.68713C5.45872 10.2566 5.64174 10.698 5.93587 11.0112C6.23001 11.3187 6.61892 11.4725 7.1026 11.4725C8.31182 11.4725 9.20403 10.7464 9.77922 9.29418L10.2204 4.88628C9.78249 4.60723 9.26612 4.4677 8.67132 4.4677C7.94579 4.4677 7.31503 4.72112 6.77906 5.22798C6.24962 5.72913 5.86071 6.42392 5.61233 7.31233C5.36395 8.19505 5.28878 8.98665 5.38682 9.68713Z" fill="#7C7C7C"/>
</svg>
