<svg width="17" height="21" viewBox="0 0 17 21" fill="none" xmlns="http://www.w3.org/2000/svg">
<path d="M11.1666 8.91667C10.3047 8.91667 9.47804 8.57426 8.86855 7.96476C8.25906 7.35527 7.91665 6.52862 7.91665 5.66667V1.33333H3.58331C3.00868 1.33333 2.45758 1.56161 2.05125 1.96794C1.64492 2.37426 1.41665 2.92536 1.41665 3.5V17.5833C1.41665 18.158 1.64492 18.7091 2.05125 19.1154C2.45758 19.5217 3.00868 19.75 3.58331 19.75H13.3333C13.9079 19.75 14.459 19.5217 14.8654 19.1154C15.2717 18.7091 15.5 18.158 15.5 17.5833V8.91667H11.1666ZM8.99998 5.66667C8.99998 6.2413 9.22825 6.7924 9.63458 7.19873C10.0409 7.60506 10.592 7.83333 11.1666 7.83333H15.0515L8.99998 1.78183V5.66667ZM3.58331 0.25H8.99998L16.5833 7.83333V17.5833C16.5833 18.4453 16.2409 19.2719 15.6314 19.8814C15.0219 20.4909 14.1953 20.8333 13.3333 20.8333H3.58331C2.72136 20.8333 1.89471 20.4909 1.28522 19.8814C0.675723 19.2719 0.333313 18.4453 0.333313 17.5833V3.5C0.333313 2.63805 0.675723 1.8114 1.28522 1.2019C1.89471 0.59241 2.72136 0.25 3.58331 0.25Z" fill="#7C7C7C"/>
</svg>
