<svg width="18" height="15" viewBox="0 0 18 15" fill="none" xmlns="http://www.w3.org/2000/svg">
<path d="M1.21882 0.607492L1.83301 0L16.3842 14.3925L15.77 15L12.8615 12.1232C11.6739 12.6164 10.3682 12.8888 9 12.8888C7.12059 12.8894 5.27912 12.3657 3.68711 11.3777C2.0951 10.3898 0.817134 8.97768 0 7.30366C0.838868 5.59106 2.15786 4.15312 3.79981 3.1612L1.21882 0.607492ZM9 12.0296C10.1233 12.0296 11.1987 11.8285 12.1926 11.4616L11.2118 10.4924C10.4592 11.003 9.5496 11.2372 8.64077 11.1541C7.73194 11.0711 6.88112 10.6762 6.2358 10.0378C5.59047 9.39941 5.19132 8.5578 5.10753 7.65887C5.02374 6.75993 5.26059 5.86033 5.77703 5.116L4.43398 3.78759C2.9767 4.62309 1.7804 5.83965 0.976448 7.30366C1.75907 8.7335 2.91788 9.92753 4.33027 10.7594C5.74267 11.5913 7.35614 12.0302 9 12.0296V12.0296ZM17.0227 7.30366C16.2401 5.87395 15.0815 4.68 13.6692 3.8481C12.257 3.0162 10.6437 2.57728 9 2.57776C8.02448 2.57659 7.05509 2.73034 6.12886 3.03317L5.44865 2.36123C6.58301 1.93496 7.78653 1.71715 9 1.71851C10.8794 1.71789 12.7209 2.24164 14.3129 3.22959C15.9049 4.21755 17.1829 5.62964 18 7.30366C17.2078 8.92127 15.9864 10.2957 14.466 11.2803L13.8371 10.6582C15.173 9.82962 16.2702 8.67422 17.0227 7.30366V7.30366ZM9 3.43702C9.68545 3.43685 10.3589 3.61494 10.9528 3.95345C11.5467 4.29195 12.0402 4.77896 12.3837 5.36563C12.7273 5.9523 12.9089 6.618 12.9102 7.29598C12.9116 7.97396 12.7327 8.64037 12.3915 9.22839L11.7486 8.59254C12.0183 8.03166 12.1059 7.40195 11.9992 6.7899C11.8925 6.17784 11.5968 5.61347 11.1528 5.1743C10.7088 4.73512 10.1382 4.44269 9.51943 4.33717C8.90063 4.23165 8.26397 4.31822 7.69691 4.58498L7.05405 3.94913C7.64605 3.61253 8.31716 3.43592 9 3.43702V3.43702ZM5.95946 7.30366C5.95933 7.8379 6.10308 8.36253 6.37593 8.8236C6.64878 9.28466 7.04088 9.66551 7.51189 9.92698C7.98291 10.1885 8.51585 10.3211 9.05589 10.3113C9.59593 10.3015 10.1236 10.1495 10.5846 9.87111L6.40425 5.73638C6.11247 6.20814 5.95851 6.75063 5.95946 7.30366V7.30366Z" fill="#7C7C7C"/>
</svg>
