<svg width="15" height="10" viewBox="0 0 15 10" fill="none" xmlns="http://www.w3.org/2000/svg">
<path d="M2.96106 9.86631H2.20904V1.11631L0 2.09893V1.3369L2.83348 0.100267H2.96106V9.86631Z" fill="#7C7C7C"/>
<path d="M9.44047 9.86631H4.25694V9.23797L7.03671 5.50134C7.50224 4.86408 7.82677 4.33601 8.0103 3.91711C8.19382 3.49822 8.28559 3.08824 8.28559 2.68717C8.28559 2.07665 8.13787 1.59314 7.84244 1.23663C7.55148 0.875668 7.14637 0.695187 6.62713 0.695187C6.07654 0.695187 5.63787 0.904635 5.3111 1.32353C4.98433 1.73797 4.82095 2.27718 4.82095 2.94118H4.07565C4.07565 2.09447 4.31065 1.3926 4.78066 0.835561C5.25067 0.27852 5.86616 0 6.62713 0C7.37019 0 7.95882 0.231729 8.39302 0.695187C8.82722 1.15419 9.04432 1.79367 9.04432 2.61364C9.04432 3.39349 8.69069 4.30481 7.98344 5.34759L7.55372 5.96257L5.16338 9.17781H9.44047V9.86631Z" fill="#7C7C7C"/>
<path d="M11.5421 4.55882H12.2739C12.8201 4.55437 13.261 4.3828 13.5967 4.04412C13.9369 3.70098 14.107 3.24421 14.107 2.6738C14.107 2.04545 13.9615 1.55971 13.6705 1.21658C13.3796 0.868984 12.9678 0.695187 12.4351 0.695187C11.9158 0.695187 11.4951 0.880125 11.1728 1.25C10.855 1.61542 10.6961 2.09447 10.6961 2.68717H9.95076C9.95076 2.17914 10.0537 1.72237 10.2596 1.31684C10.47 0.906863 10.7677 0.586007 11.1526 0.354278C11.5376 0.118093 11.9651 0 12.4351 0C13.1692 0 13.7556 0.238414 14.1943 0.715241C14.6329 1.18761 14.8523 1.84938 14.8523 2.70053C14.8523 3.18182 14.7247 3.61854 14.4696 4.01069C14.2189 4.40285 13.8809 4.69251 13.4557 4.87968C13.9481 5.04011 14.3286 5.32308 14.5971 5.72861C14.8657 6.12968 15 6.62656 15 7.21925C15 8.06595 14.7672 8.74109 14.3017 9.24465C13.8362 9.74822 13.2207 10 12.4552 10C11.9673 10 11.5197 9.88636 11.1124 9.65909C10.705 9.42736 10.3894 9.10428 10.1656 8.68984C9.94628 8.2754 9.83662 7.78966 9.83662 7.23262H10.5819C10.5819 7.83868 10.7543 8.33779 11.0989 8.72995C11.4481 9.11765 11.9002 9.3115 12.4552 9.3115C13.0237 9.3115 13.4646 9.13547 13.778 8.78342C14.0958 8.42692 14.2547 7.91444 14.2547 7.24599C14.2547 6.60428 14.0846 6.11408 13.7444 5.7754C13.4087 5.43226 12.9163 5.25847 12.2672 5.25401H11.5421V4.55882Z" fill="#7C7C7C"/>
</svg>
