<svg width="17" height="9" viewBox="0 0 17 9" fill="none" xmlns="http://www.w3.org/2000/svg">
<path d="M4.86035 0V6.29878C4.85661 7.1565 4.64334 7.82114 4.22053 8.29268C3.80147 8.76423 3.20469 9 2.43018 9C1.64444 9 1.04204 8.76829 0.622978 8.30488C0.207659 7.8374 0 7.16057 0 6.27439V0H0.639815V6.25C0.639815 7.65244 1.2366 8.35366 2.43018 8.35366C3.60504 8.35366 4.19996 7.67276 4.21492 6.31098V0H4.86035Z" fill="#7C7C7C"/>
<path d="M9.20997 5.18293H7.30175V8.87805H6.65632V0H8.89568C9.64026 0 10.2165 0.231707 10.6243 0.695122C11.0359 1.15447 11.2417 1.79472 11.2417 2.61585C11.2417 3.18902 11.1144 3.69309 10.86 4.12805C10.6056 4.55894 10.2632 4.85772 9.83295 5.02439L11.5335 8.79878V8.87805H10.8488L9.20997 5.18293ZM7.30175 4.53659H9.00792C9.49059 4.53659 9.87598 4.35772 10.1641 4C10.4522 3.63821 10.5962 3.17683 10.5962 2.61585C10.5962 1.9939 10.4466 1.5122 10.1472 1.17073C9.84791 0.829268 9.42885 0.658537 8.89006 0.658537H7.30175V4.53659Z" fill="#7C7C7C"/>
<path d="M13.6326 8.23171H17V8.87805H12.9871V0H13.6326V8.23171Z" fill="#7C7C7C"/>
</svg>
