<svg width="18" height="18" viewBox="0 0 18 18" fill="none" xmlns="http://www.w3.org/2000/svg">
<path d="M17.6896 4.28124L15.2204 6.75053L11.2499 2.77976L13.719 0.310463C13.8173 0.212045 13.9339 0.133966 14.0624 0.0806937C14.1908 0.027421 14.3285 0 14.4676 0C14.6067 0 14.7443 0.027421 14.8728 0.0806937C15.0012 0.133966 15.1179 0.212045 15.2162 0.310463L17.6896 2.78399C17.788 2.88224 17.866 2.99893 17.9193 3.12739C17.9726 3.25585 18 3.39355 18 3.53261C18 3.67168 17.9726 3.80938 17.9193 3.93784C17.866 4.06629 17.788 4.18299 17.6896 4.28124ZM0 14.0292L10.6569 3.37272L14.6275 7.3435L3.97054 18H0.00105873V14.0292H0ZM14.4231 1.10674L12.7926 2.73634L15.267 5.20881L16.8954 3.57921L14.4231 1.10674ZM13.0848 7.39115L10.6125 4.91762L1.05987 14.4697V16.9432H3.53325L13.0848 7.39115Z" fill="#7C7C7C"/>
</svg>
