<svg width="22" height="22" viewBox="0 0 22 22" fill="none" xmlns="http://www.w3.org/2000/svg">
<path d="M1.86946 0.875H8.74446V7.75H7.36946V2.92788C5.46463 3.72499 3.89445 5.15688 2.92561 6.98037C1.95677 8.80385 1.649 10.9065 2.05458 12.9312C2.46016 14.9558 3.55408 16.7777 5.15054 18.0873C6.74701 19.3969 8.74758 20.1135 10.8125 20.1154C13.0051 20.1175 15.1219 19.3136 16.7604 17.8566C18.3988 16.3995 19.4445 14.3911 19.6985 12.2132C19.9525 10.0354 19.3971 7.84018 18.1379 6.04521C16.8788 4.25023 15.0037 2.98074 12.8695 2.47825V1.07025C15.2335 1.55127 17.354 2.84586 18.8622 4.72877C20.3703 6.61168 21.1706 8.96374 21.1238 11.3757C21.077 13.7877 20.1861 16.107 18.606 17.93C17.026 19.7529 14.8568 20.9643 12.4759 21.3533C10.095 21.7422 7.65313 21.2842 5.57508 20.0588C3.49702 18.8334 1.91434 16.9182 1.10238 14.6466C0.290425 12.3749 0.300593 9.8904 1.13112 7.62542C1.96164 5.36045 3.55995 3.45833 5.64796 2.25H1.86946V0.875Z" fill="white"/>
</svg>
