<svg width="13" height="16" viewBox="0 0 13 16" fill="none" xmlns="http://www.w3.org/2000/svg">
<path d="M12.1333 13.4737C12.1333 14.1437 11.8594 14.7863 11.3718 15.2601C10.8842 15.7338 10.2229 16 9.53333 16H3.46667C2.7771 16 2.11578 15.7338 1.62819 15.2601C1.14059 14.7863 0.866667 14.1437 0.866667 13.4737V3.36842H0V0.842105H3.9L4.76667 0H8.23333L9.1 0.842105H13V3.36842H12.1333V13.4737ZM1.73333 3.36842V13.4737C1.73333 13.9204 1.91595 14.3488 2.24101 14.6646C2.56608 14.9805 3.00696 15.1579 3.46667 15.1579H9.53333C9.99304 15.1579 10.4339 14.9805 10.759 14.6646C11.084 14.3488 11.2667 13.9204 11.2667 13.4737V3.36842H1.73333ZM12.1333 2.52632V1.68421H8.66667L7.8 0.842105H5.2L4.33333 1.68421H0.866667V2.52632H12.1333ZM3.46667 5.05263H4.33333V13.4737H3.46667V5.05263ZM8.66667 5.05263H9.53333V13.4737H8.66667V5.05263Z" fill="#A93A1E"/>
</svg>